<?xml version="1.0" encoding="UTF-8" standalone="no"?>
<!-- Created with Inkscape (http://www.inkscape.org/) -->

<svg
   xmlns:dc="http://purl.org/dc/elements/1.1/"
   xmlns:cc="http://creativecommons.org/ns#"
   xmlns:rdf="http://www.w3.org/1999/02/22-rdf-syntax-ns#"
   xmlns:svg="http://www.w3.org/2000/svg"
   xmlns="http://www.w3.org/2000/svg"
   xmlns:sodipodi="http://sodipodi.sourceforge.net/DTD/sodipodi-0.dtd"
   xmlns:inkscape="http://www.inkscape.org/namespaces/inkscape"
   width="527.90234"
   height="527.90234"
   viewBox="0 0 527.90234 527.90234"
   version="1.1"
   id="svg8"
   inkscape:version="0.92.3 (2405546, 2018-03-11)"
   sodipodi:docname="ln.svg">
  <defs
     id="defs2" />
  <sodipodi:namedview
     id="base"
     pagecolor="#ffffff"
     bordercolor="#666666"
     borderopacity="1.0"
     inkscape:pageopacity="0.0"
     inkscape:pageshadow="2"
     inkscape:zoom="0.7"
     inkscape:cx="39.166998"
     inkscape:cy="277.59664"
     inkscape:document-units="mm"
     inkscape:current-layer="layer1"
     showgrid="false"
     showguides="false"
     fit-margin-top="0"
     fit-margin-left="0"
     fit-margin-right="0"
     fit-margin-bottom="0"
     inkscape:window-width="1299"
     inkscape:window-height="713"
     inkscape:window-x="67"
     inkscape:window-y="27"
     inkscape:window-maximized="1" />
  <metadata
     id="metadata5">
    <rdf:RDF>
      <cc:Work
         rdf:about="">
        <dc:format>image/svg+xml</dc:format>
        <dc:type
           rdf:resource="http://purl.org/dc/dcmitype/StillImage" />
        <dc:title></dc:title>
      </cc:Work>
    </rdf:RDF>
  </metadata>
  <g
     inkscape:label="Layer 1"
     inkscape:groupmode="layer"
     id="layer1"
     transform="translate(72.951172,72.951172)">
    <path
       style="opacity:0.95;fill:#000000;fill-opacity:1;stroke:none;stroke-width:1.23177159;stroke-linecap:round;stroke-linejoin:round;stroke-miterlimit:4;stroke-dasharray:none;stroke-dashoffset:0;stroke-opacity:1;paint-order:markers fill stroke"
       d="M 191,-72.951172 A 263.95109,263.95105 0 0 0 -72.951172,191 263.95109,263.95105 0 0 0 191,454.95117 263.95109,263.95105 0 0 0 454.95117,191 263.95109,263.95105 0 0 0 191,-72.951172 Z M 86.880859,41.966797 c 22.458991,0 40.666021,18.207016 40.666021,40.666015 0,22.459008 -18.20603,40.666018 -40.666021,40.666018 -22.459,0 -40.666015,-18.20701 -40.666015,-40.666018 0,-22.459 18.207015,-40.666015 40.666015,-40.666015 z M 268.91211,137.20312 c 73.552,0 73.13086,68.71666 73.13086,106.47266 v 86.8457 c 0,5.106 -4.14009,9.2461 -9.24609,9.2461 h -45.93555 c -5.106,0 -9.24414,-4.1401 -9.24414,-9.2461 v -84.16796 c 0,-12.556 3.68154,-55.02149 -32.81446,-55.02149 -28.309,0 -34.05012,29.06733 -35.20312,42.11133 v 97.07812 c 0,5.106 -4.13909,9.2461 -9.24609,9.2461 h -44.42579 c -5.106,0 -9.24609,-4.1401 -9.24609,-9.2461 V 149.46094 c 0,-5.106 4.14009,-9.2461 9.24609,-9.2461 h 44.42579 c 5.106,0 9.24609,4.1401 9.24609,9.2461 v 15.65429 c 10.497,-15.753 26.0975,-27.91211 59.3125,-27.91211 z M 65.476562,140.21484 H 108.2832 c 5.554,0 10.05664,4.50264 10.05664,10.05664 v 179.43946 c 0,5.554 -4.50264,10.05664 -10.05664,10.05664 H 65.476562 c -5.554,0 -10.054687,-4.50264 -10.054687,-10.05664 V 150.27148 c 0,-5.554 4.500687,-10.05664 10.054687,-10.05664 z"
       id="path841"
       inkscape:connector-curvature="0" />
  </g>
</svg>
