<?xml version="1.0" encoding="UTF-8" standalone="no"?>
<!-- Created with Inkscape (http://www.inkscape.org/) -->

<svg
   xmlns:dc="http://purl.org/dc/elements/1.1/"
   xmlns:cc="http://creativecommons.org/ns#"
   xmlns:rdf="http://www.w3.org/1999/02/22-rdf-syntax-ns#"
   xmlns:svg="http://www.w3.org/2000/svg"
   xmlns="http://www.w3.org/2000/svg"
   xmlns:sodipodi="http://sodipodi.sourceforge.net/DTD/sodipodi-0.dtd"
   xmlns:inkscape="http://www.inkscape.org/namespaces/inkscape"
   width="100%"
   height="100%"
   viewBox="0 0 16 16"
   version="1.1"
   id="svg8"
   sodipodi:docname="quotation-mark-close.svg"
   inkscape:version="0.92.3 (2405546, 2018-03-11)">
  <defs
     id="defs2" />
  <sodipodi:namedview
     id="base"
     pagecolor="#ffffff"
     bordercolor="#666666"
     borderopacity="1.0"
     inkscape:pageopacity="0.0"
     inkscape:pageshadow="2"
     inkscape:zoom="22.4"
     inkscape:cx="3.2757683"
     inkscape:cy="8.4830827"
     inkscape:document-units="mm"
     inkscape:current-layer="layer2"
     showgrid="false"
     inkscape:window-width="1299"
     inkscape:window-height="713"
     inkscape:window-x="67"
     inkscape:window-y="27"
     inkscape:window-maximized="1" />
  <metadata
     id="metadata5">
    <rdf:RDF>
      <cc:Work
         rdf:about="">
        <dc:format>image/svg+xml</dc:format>
        <dc:type
           rdf:resource="http://purl.org/dc/dcmitype/StillImage" />
        <dc:title></dc:title>
      </cc:Work>
    </rdf:RDF>
  </metadata>
  <g
     inkscape:groupmode="layer"
     id="layer2"
     inkscape:label="Layer 2">
    <path
       id="path870"
       style="opacity:1;fill:none;fill-opacity:0.76862745;stroke:#ff0000;stroke-width:0.06745492;stroke-linecap:round;stroke-linejoin:round;stroke-miterlimit:4;stroke-dasharray:none;stroke-dashoffset:0;stroke-opacity:0.78431373;paint-order:markers fill stroke"
       d="m 9.4453398,3.7848483 c 0,-1.599919 1.2424282,-2.93651603 2.7701462,-2.85465603 2.416306,0.12947503 3.599816,2.11520603 3.729594,3.72506703 0.09184,1.139233 0.0089,1.8614282 -0.102424,2.8473085 -0.09702,0.8595473 -0.399493,2.3475175 -1.738687,4.0610732 -1.613361,2.064364 -2.597856,2.574297 -3.544479,3.180733 -0.8865102,0.567927 -0.9581162,0.244292 -1.0880152,0.170211 -0.05164,-0.02945 -0.598268,-0.541037 -0.254045,-0.799436 0.526943,-0.395563 0.9231092,-0.682427 1.8343282,-1.534548 0.712155,-0.665968 1.149648,-1.176818 1.734673,-2.404337 0.924413,-1.9396361 0.641516,-3.4366625 0.260545,-3.6933575 -0.227008,-0.152957 -0.347647,0.0903 -1.042763,0.100264 -1.529752,0.02191 -2.5588732,-1.1983972 -2.5588732,-2.7983162 z m -9.07066032,0 c 0,-1.599919 1.24242852,-2.93651603 2.77014622,-2.85465603 C 5.5611316,1.0596673 6.7446415,3.0453983 6.87442,4.6552593 6.966259,5.7944923 6.88328,6.5166875 6.7719958,7.5025678 6.6749748,8.3621151 6.3725023,9.8500853 5.0333086,11.563641 c -1.6133605,2.064364 -2.5978562,2.574297 -3.5444784,3.180733 -0.88651072,0.567927 -0.95811672,0.244292 -1.08801572,0.170211 -0.05164,-0.02945 -0.598268,-0.541037 -0.254045,-0.799436 C 0.67371248,13.719586 1.0698785,13.432722 1.9810979,12.580601 2.6932528,11.914633 3.1307458,11.403783 3.7157703,10.176264 4.6401833,8.2366279 4.3572865,6.7396015 3.9763157,6.4829065 3.7493072,6.3299495 3.6286683,6.5732065 2.9335526,6.5831705 1.4038005,6.6050805 0.37467948,5.3847733 0.37467948,3.7848543 Z" />
  </g>
</svg>
