<?xml version="1.0" encoding="UTF-8" standalone="no"?>
<!-- Created with Inkscape (http://www.inkscape.org/) -->

<svg
   xmlns:dc="http://purl.org/dc/elements/1.1/"
   xmlns:cc="http://creativecommons.org/ns#"
   xmlns:rdf="http://www.w3.org/1999/02/22-rdf-syntax-ns#"
   xmlns:svg="http://www.w3.org/2000/svg"
   xmlns="http://www.w3.org/2000/svg"
   xmlns:sodipodi="http://sodipodi.sourceforge.net/DTD/sodipodi-0.dtd"
   xmlns:inkscape="http://www.inkscape.org/namespaces/inkscape"
   width="16"
   height="16"
   viewBox="0 0 16 16"
   version="1.1"
   id="svg8"
   inkscape:version="0.92.3 (2405546, 2018-03-11)"
   sodipodi:docname="favicon.svg"
   style="enable-background:new">
  <defs
     id="defs2">
    <filter
       inkscape:collect="always"
       style="color-interpolation-filters:sRGB"
       id="filter868">
      <feBlend
         inkscape:collect="always"
         mode="darken"
         in2="BackgroundImage"
         id="feBlend870" />
    </filter>
  </defs>
  <sodipodi:namedview
     id="base"
     pagecolor="#ffffff"
     bordercolor="#666666"
     borderopacity="1.0"
     inkscape:pageopacity="0.0"
     inkscape:pageshadow="2"
     inkscape:zoom="22.4"
     inkscape:cx="2.4587287"
     inkscape:cy="8.9467879"
     inkscape:document-units="mm"
     inkscape:current-layer="layer1"
     showgrid="false"
     inkscape:window-width="1299"
     inkscape:window-height="713"
     inkscape:window-x="67"
     inkscape:window-y="27"
     inkscape:window-maximized="1"
     scale-x="3.77953"
     fit-margin-top="0"
     fit-margin-left="0"
     fit-margin-right="0"
     fit-margin-bottom="0" />
  <metadata
     id="metadata5">
    <rdf:RDF>
      <cc:Work
         rdf:about="">
        <dc:format>image/svg+xml</dc:format>
        <dc:type
           rdf:resource="http://purl.org/dc/dcmitype/StillImage" />
        <dc:title />
      </cc:Work>
    </rdf:RDF>
  </metadata>
  <g
     inkscape:label="Layer 1"
     inkscape:groupmode="layer"
     id="layer1"
     transform="translate(1.4995192,-279.50048)"
     style="filter:url(#filter868)">
    <circle
       style="opacity:1;fill:#353535;fill-opacity:1;stroke:none;stroke-width:0.05312685;stroke-linecap:round;stroke-linejoin:round;stroke-miterlimit:4;stroke-dasharray:none;stroke-dashoffset:0;stroke-opacity:1;paint-order:markers fill stroke"
       id="path858"
       cx="6.4960713"
       cy="287.50491"
       r="7.969027" />
    <g
       id="g856"
       transform="matrix(0.70353898,0,0,0.70353898,0.91065047,84.171203)"
       style="fill:#ffffff;fill-opacity:1">
      <path
         sodipodi:nodetypes="ccccccccccc"
         inkscape:connector-curvature="0"
         id="path819"
         style="font-style:normal;font-variant:normal;font-weight:normal;font-stretch:normal;font-size:18.4299202px;line-height:1.25;font-family:Kiona;-inkscape-font-specification:Kiona;stroke-width:1.53582692;fill:#ffffff;fill-opacity:1"
         d="m 14.119326,295.08682 v -12.12689 l -6.137163,8.77265 -6.2108831,-8.77352 v 12.12776 l 0.8293464,7.4e-4 v -9.49215 l 5.3815367,7.59313 5.307817,-7.5747 v 9.47298 z" />
      <g
         transform="matrix(1.5301682,0,0,1.5301682,9.336907,-146.82831)"
         id="text829"
         style="font-style:normal;font-variant:normal;font-weight:normal;font-stretch:normal;font-size:12px;line-height:1.25;font-family:Kiona;-inkscape-font-specification:Kiona;letter-spacing:0px;word-spacing:0px;fill:#ffffff;fill-opacity:1;stroke:none"
         aria-label="P">
        <path
           sodipodi:nodetypes="ccsccsccsccccsccsccscc"
           inkscape:connector-curvature="0"
           id="path831"
           d="m -2.2072065,288.80215 v -3.52862 h 1.1592435 c 0.45599995,0 0.87599996,-0.1 1.25999999,-0.3 0.392,-0.2 0.7,-0.468 0.92400001,-0.804 0.232,-0.344 0.348,-0.712 0.348,-1.104 0,-0.4 -0.116,-0.768 -0.348,-1.104 -0.22400001,-0.336 -0.53200001,-0.604 -0.92400001,-0.804 -0.38400003,-0.2 -0.80400004,-0.3 -1.25999999,-0.3 h -1.7112435 l 0.012,7.94462 z m -0.012,-7.39262 h 1.1712435 c 0.35999995,0 0.69199996,0.076 0.99599999,0.228 0.304,0.144 0.544,0.344 0.72,0.6 0.184,0.248 0.276,0.524 0.276,0.828 0,0.296 -0.092,0.572 -0.276,0.828 -0.176,0.248 -0.416,0.448 -0.72,0.6 -0.30400003,0.144 -0.63600004,0.216 -0.99599999,0.216 h -1.1592435 z"
           style="fill:#ffffff;fill-opacity:1" />
      </g>
    </g>
  </g>
</svg>
